<?xml version="1.0" encoding="UTF-8"?>
<svg id="Layer_2" data-name="Layer 2" xmlns="http://www.w3.org/2000/svg" xmlns:xlink="http://www.w3.org/1999/xlink" viewBox="0 0 64 64.08">
  <defs>
    <style>
      .cls-1 {
        fill: url(#linear-gradient-2);
      }

      .cls-2 {
        fill: #18688b;
      }

      .cls-3 {
        fill: #fff;
      }

      .cls-4 {
        fill: url(#linear-gradient);
      }

      .cls-5 {
        fill: rgba(255, 255, 255, 0);
      }
    </style>
    <linearGradient id="linear-gradient" x1="-6248.29" y1="55.42" x2="-6230.25" y2="23.28" gradientTransform="translate(-6205.18 66) rotate(-180)" gradientUnits="userSpaceOnUse">
      <stop offset="0" stop-color="#5dc3b1"/>
      <stop offset=".1" stop-color="#5abbae"/>
      <stop offset=".24" stop-color="#51adaa"/>
      <stop offset=".41" stop-color="#4597a2"/>
      <stop offset=".6" stop-color="#377d99"/>
      <stop offset=".76" stop-color="#26658f"/>
    </linearGradient>
    <linearGradient id="linear-gradient-2" x1="-6225.19" y1="64.96" x2="-6236.15" y2="34.18" xlink:href="#linear-gradient"/>
  </defs>
  <g id="Layer_1-2" data-name="Layer 1">
    <g id="_05" data-name="05">
      <rect id="Background" class="cls-5" width="64" height="64.08"/>
      <g>
        <path class="cls-2" d="M40.2,31.83c.51-.51,1.33-.51,1.85,0s.51,1.34,0,1.85c-.64.64-.97,1.45-1,2.22-.02.7.18,1.36.62,1.87h.91c.67,0,1.22.54,1.22,1.22s-.54,1.22-1.22,1.22h-1.31c-.12,0-.22-.02-.34-.05-.35.01-.7-.12-.97-.37h0c-2.17-2.2-1.94-5.74.26-7.95Z"/>
        <path class="cls-2" d="M28.15,39.77c-2.17-2.2-1.95-5.74.25-7.94.51-.51,1.33-.51,1.85,0s.51,1.34,0,1.85c-.64.64-.97,1.45-1,2.22-.02.7.18,1.36.62,1.87h.67c.67,0,1.22.54,1.22,1.22s-.54,1.22-1.22,1.22h-1.31c-.17,0-.33-.03-.48-.1-.21-.06-.42-.17-.59-.34h0Z"/>
        <path class="cls-4" d="M25.72,17.51h.12c.69,0,4.03.04,7.45,1.07.15-1.06.21-2.16.2-3.11,0-.78-.03-1.46-.06-1.94-.03-.48-.06-.75-.06-.75-.04-.37.07-.74.32-1.01s.6-.44.97-.44c9.63,0,17.44,7.82,17.44,17.46.01,2.76-.65,4.8-2.13,6.08-1.47,1.26-3.36,1.54-5.34,1.56-.93.01-2.87.01-5.21.01-4.54,0-10.55-.01-13.16-.01-.23.09-.79.33-1.34.89-.7.7-1.47,1.89-1.7,4.15-.01.13-.02.28-.02.45-.01.83-.01,2.1.59,3.35.67,1.41,3.09,4.26,7.25,4.38.11,0,.21-.01.32-.02.28-.03.55-.07.85-.14h.04c1.5-.43,2.54-1.79,2.54-3.36,0-.17-.01-.35-.04-.51-.18-1.3-1.32-2.25-2.59-2.25-.12,0-.23.01-.35.02-.91.13-1.54.89-1.55,1.76,0,.09.01.18.02.28.01.12.13.37.29.52.16.16.3.2.35.2.04-.01.19.02.55-.43.44-.57,1.26-.67,1.83-.23.58.44.67,1.26.23,1.84-.67.9-1.64,1.45-2.62,1.44-.93,0-1.69-.45-2.22-.98-.53-.54-.89-1.22-1.01-1.99-.03-.22-.04-.43-.04-.65,0-2.17,1.59-4.05,3.79-4.35.25-.03.48-.05.71-.05,2.56,0,4.79,1.87,5.17,4.48.04.3.06.61.06.91,0,2.72-2.12,5.21-4.28,5.85-2.13.63-3.77.77-5.35.78-1.67,0-3.48-.16-5.45-.72-2.79-.78-4.93-2.79-6.9-5.64-2.46-3.55-3.32-9.36-3.18-12.61.51-10.76,6.34-16.28,13.51-16.28Z"/>
        <path class="cls-2" d="M44.19,25.44c0-.87-.69-1.56-1.56-1.56s-1.56.69-1.56,1.56.69,1.56,1.56,1.56,1.56-.69,1.56-1.56Z"/>
        <path class="cls-3" d="M45.75,25.44c0,1.73-1.4,3.13-3.13,3.13h0c-1.73,0-3.13-1.4-3.13-3.13h0c0-1.73,1.4-3.13,3.13-3.13h0c1.73,0,3.13,1.4,3.13,3.13h0ZM44.19,25.44h0c0-.87-.69-1.56-1.56-1.56h0c-.86,0-1.56.69-1.56,1.56h0c0,.87.69,1.56,1.56,1.56h0c.85,0,1.55-.69,1.56-1.56h0Z"/>
        <path class="cls-1" d="M33.33,18.46s-.14,1.68-.82,3.75c-.34,0-5.37-4.9-13.15-2.98,2.95-1.84,7.93-2.47,13.97-.77Z"/>
      </g>
    </g>
  </g>
</svg>

